<svg xmlns="http://www.w3.org/2000/svg" viewBox="0 0 640 360" fill="none">
  <rect width="640" height="360" rx="32" fill="#E8F6FF"/>
  <path d="M240 72c0-40 48-72 108-72s108 32 108 72c0 88-108 176-108 176S240 160 240 72Z" fill="#3B82F6"/>
  <path d="M316 272c-3.9 0-7-3.1-7-7s3.1-7 7-7h16c3.9 0 7 3.1 7 7s-3.1 7-7 7h-16Z" fill="#93C5FD"/>
  <path d="M276 124c0-4.4 3.6-8 8-8h64c4.4 0 8 3.6 8 8v20c0 4.4-3.6 8-8 8h-64c-4.4 0-8-3.6-8-8v-20Z" fill="#60A5FA"/>
  <path d="M322 236c-4.4 0-8-3.6-8-8v-44c0-4.4 3.6-8 8-8s8 3.6 8 8v44c0 4.4-3.6 8-8 8Z" fill="#D9EFFF"/>
  <circle cx="319" cy="94" r="10" fill="#EFF6FF"/>
  <circle cx="350" cy="116" r="6" fill="#EFF6FF"/>
  <path d="M311 130c22-7 36-18 42-28 6-10 8-19 8-27 0-28-23-50-52-50s-52 22-52 50c0 8 2 17 8 27 6 10 20 21 42 28Z" stroke="#2563EB" stroke-width="12" stroke-linecap="round" stroke-linejoin="round"/>
  <path d="M288 184c0 45 20 72 31 88 13 18 27 26 35 26s22-8 35-26c11-16 31-43 31-88" stroke="#1D4ED8" stroke-width="12" stroke-linecap="round"/>
  <path d="M340 36c33 0 60 9 60 20s-27 20-60 20-60-9-60-20 27-20 60-20Z" fill="#BFDBFE"/>
</svg>